<svg xmlns="http://www.w3.org/2000/svg" width="21.165" height="23.499" viewBox="0 0 21.165 23.499"><g transform="translate(0)"><path d="M9.192,3.878a.814.814,0,0,0-.814.814V22.709l6.512-4.342L21.4,22.709V14.46a.814.814,0,0,1,1.628,0V25.749l-8.14-5.426L6.75,25.749V4.692A2.442,2.442,0,0,1,9.192,2.25H15.7a.814.814,0,1,1,0,1.628ZM23.845,2.25a.814.814,0,0,1,.814.814V6.32a.814.814,0,0,1-.814.814H20.588a.814.814,0,0,1,0-1.628h2.442V3.064A.814.814,0,0,1,23.845,2.25Z" transform="translate(-6.75 -2.25)" fill="#505050" fill-rule="evenodd"/><path d="M29.25,7.564a.814.814,0,0,1,.814-.814H33.32a.814.814,0,0,1,0,1.628H30.878V10.82a.814.814,0,0,1-1.628,0Z" transform="translate(-12.969 -3.494)" fill="#505050" fill-rule="evenodd"/></g></svg>